<?xml version="1.0" standalone="no"?>
<!DOCTYPE svg PUBLIC "-//W3C//DTD SVG 20010904//EN"
 "http://www.w3.org/TR/2001/REC-SVG-20010904/DTD/svg10.dtd">
<svg version="1.0" xmlns="http://www.w3.org/2000/svg"
 width="512.000000pt" height="512.000000pt" viewBox="0 0 512.000000 512.000000"
 preserveAspectRatio="xMidYMid meet">
<metadata>
Created by potrace 1.11, written by Peter Selinger 2001-2013
</metadata>
<g transform="translate(0.000000,512.000000) scale(0.100000,-0.100000)"
fill="#000000" stroke="none">
<path d="M2540 4911 c0 -5 -7 -17 -16 -25 -8 -9 -11 -16 -4 -16 6 0 2 -10 -10
-22 -11 -12 -20 -27 -20 -33 0 -7 -9 -22 -20 -35 -11 -12 -17 -27 -14 -31 3
-5 1 -9 -4 -9 -5 0 -20 -21 -33 -47 -13 -27 -32 -56 -42 -65 -10 -9 -17 -18
-16 -20 5 -8 -13 -48 -22 -48 -6 0 -8 -4 -5 -9 3 -5 -1 -14 -9 -21 -8 -7 -12
-16 -9 -21 3 -5 1 -9 -4 -9 -5 0 -15 -13 -22 -30 -7 -16 -17 -30 -22 -30 -5 0
-6 -4 -3 -10 3 -5 1 -10 -5 -10 -6 0 -8 -4 -5 -10 3 -5 1 -10 -6 -10 -7 0 -10
-3 -6 -6 3 -4 1 -12 -6 -20 -22 -25 -32 -40 -35 -54 -2 -8 -7 -17 -10 -20 -4
-3 -22 -34 -41 -70 -19 -35 -40 -70 -48 -78 -7 -7 -11 -18 -8 -23 4 -5 2 -9
-4 -9 -5 0 -12 -9 -16 -19 -3 -11 -17 -36 -30 -55 -13 -20 -22 -36 -20 -36 4
0 -30 -54 -52 -85 -5 -6 -9 -16 -10 -22 -2 -7 -19 -37 -38 -67 -19 -30 -35
-59 -35 -65 0 -5 -5 -11 -11 -13 -5 -2 -11 -11 -13 -21 -1 -9 -11 -27 -22 -40
-10 -13 -20 -28 -21 -34 -1 -6 -14 -28 -28 -48 -13 -21 -23 -41 -20 -45 3 -5
1 -10 -4 -12 -5 -1 -11 -10 -13 -18 -2 -8 -11 -21 -21 -28 -9 -7 -15 -17 -12
-21 2 -5 -4 -19 -15 -31 -11 -12 -22 -31 -25 -41 -4 -11 -11 -19 -16 -19 -5 0
-8 -3 -7 -7 5 -16 -68 -133 -82 -133 -13 0 -13 -1 0 -10 8 -5 10 -10 4 -10
-11 0 -28 -35 -25 -52 1 -5 -6 -8 -15 -8 -8 0 -13 -4 -10 -9 3 -4 -10 -34 -29
-65 -18 -31 -30 -56 -27 -56 4 0 -1 -5 -10 -11 -10 -5 -18 -15 -18 -20 0 -6
-9 -24 -21 -40 -11 -16 -18 -29 -14 -29 3 0 -3 -10 -15 -22 -11 -12 -20 -28
-20 -35 0 -7 -5 -13 -10 -13 -6 0 -9 -3 -8 -7 3 -10 -73 -147 -84 -151 -4 -2
-6 -8 -2 -13 3 -5 0 -9 -6 -9 -6 0 -16 -13 -21 -30 -6 -16 -15 -30 -21 -30 -5
0 -6 -4 -3 -10 3 -5 1 -10 -4 -10 -6 0 -10 -3 -9 -7 3 -16 -15 -43 -25 -36 -6
3 -7 1 -3 -6 4 -6 2 -18 -4 -26 -10 -12 -10 -18 0 -30 7 -8 16 -15 20 -15 4 0
35 -18 68 -40 33 -22 63 -40 66 -40 4 0 14 -6 21 -12 32 -29 45 -38 52 -38 7
0 62 -35 145 -91 15 -11 32 -19 38 -19 5 0 10 -4 10 -10 0 -5 7 -10 15 -10 8
0 15 -4 15 -10 0 -5 5 -10 11 -10 12 0 102 -61 107 -72 2 -5 12 -8 22 -8 10 0
20 -4 22 -8 2 -5 86 -61 188 -125 102 -64 190 -120 196 -124 15 -12 46 -31 77
-48 15 -9 89 -56 164 -105 l138 -89 45 26 c24 15 49 30 55 35 8 7 220 141 368
233 9 6 94 60 189 121 95 61 270 172 388 247 118 75 220 140 225 145 6 4 36
23 67 42 46 28 55 37 45 48 -6 8 -12 21 -14 30 -1 9 -7 18 -12 20 -6 2 -11 7
-11 12 0 4 -20 41 -45 82 -25 42 -45 80 -45 86 0 6 -4 12 -9 14 -5 2 -11 10
-13 18 -2 8 -11 23 -20 34 -10 11 -18 26 -18 33 0 7 -4 13 -10 13 -5 0 -10 5
-10 11 0 6 -16 38 -36 70 -19 32 -32 64 -28 70 4 7 3 9 -4 5 -6 -3 -16 7 -24
24 -7 16 -16 30 -20 30 -5 0 -8 4 -8 9 0 4 -22 47 -50 95 -27 48 -50 89 -50
92 0 3 -14 25 -31 50 -16 24 -31 53 -32 64 -1 10 -4 17 -8 15 -3 -3 -17 17
-30 43 -13 26 -29 51 -35 57 -5 5 -19 29 -30 52 -10 24 -22 43 -26 43 -5 0 -8
4 -8 9 0 6 -38 76 -85 156 -47 81 -85 149 -85 151 0 2 -16 28 -35 58 -19 30
-35 60 -35 66 0 5 -4 10 -10 10 -5 0 -10 4 -10 10 0 11 -117 218 -137 241 -7
9 -10 19 -6 22 3 4 1 7 -5 7 -7 0 -12 5 -12 10 0 6 -18 40 -40 76 -22 36 -40
69 -40 73 0 4 -10 18 -22 31 -13 14 -21 26 -19 28 5 5 -60 114 -72 123 -5 3
-7 8 -6 10 2 2 -16 36 -39 75 -22 39 -46 83 -53 97 -7 15 -16 27 -21 27 -4 0
-7 5 -5 12 1 6 -6 14 -15 16 -10 2 -18 -1 -18 -7z"/>
<path d="M1245 2128 c41 -62 75 -118 75 -125 0 -7 5 -13 10 -13 15 0 71 -91
63 -103 -3 -6 -2 -7 4 -4 9 6 73 -71 73 -88 0 -3 6 -13 13 -20 33 -38 97 -131
97 -143 0 -6 4 -12 8 -14 7 -3 92 -125 246 -353 23 -33 44 -64 49 -70 4 -5 18
-26 30 -45 13 -19 94 -137 180 -262 86 -125 157 -232 157 -237 0 -5 4 -11 8
-13 8 -2 84 -107 117 -160 39 -62 168 -249 175 -253 4 -3 28 23 52 57 63 89
151 217 163 236 6 10 12 19 15 22 3 3 23 32 46 65 22 33 85 125 139 205 55 80
115 169 134 197 18 29 38 53 42 53 5 0 9 5 9 11 0 12 61 102 73 107 4 2 7 8 7
13 0 6 5 15 11 22 11 13 273 396 377 552 37 55 72 106 79 115 7 8 64 90 127
183 90 131 110 167 95 167 -10 0 -19 -5 -19 -10 0 -6 -10 -15 -22 -20 -13 -5
-68 -38 -123 -74 -191 -123 -355 -226 -361 -226 -3 0 -11 -6 -18 -12 -10 -11
-288 -190 -344 -223 -9 -5 -30 -19 -47 -31 -16 -11 -73 -47 -125 -79 -52 -33
-97 -62 -100 -65 -3 -3 -15 -11 -27 -17 -13 -7 -33 -19 -45 -25 -13 -7 -25
-15 -28 -19 -14 -15 -109 -67 -112 -61 -4 9 -65 52 -74 52 -3 0 -20 10 -37 23
-35 24 -64 42 -87 53 -8 4 -17 10 -20 13 -8 9 -100 71 -106 71 -3 0 -38 23
-79 50 -41 28 -79 50 -85 50 -5 0 -10 5 -10 10 0 6 -7 10 -15 10 -8 0 -15 4
-15 9 0 5 -8 11 -17 14 -23 7 -72 37 -97 60 -11 9 -26 17 -33 17 -7 0 -13 5
-13 10 0 6 -7 10 -15 10 -8 0 -15 5 -15 10 0 6 -6 10 -13 10 -7 0 -23 9 -35
20 -12 11 -24 20 -27 20 -3 0 -33 18 -65 40 -32 22 -62 40 -65 40 -8 0 -69 44
-73 53 -2 4 -7 7 -12 7 -11 0 -114 63 -118 73 -2 4 -8 7 -13 7 -18 0 -168 107
-161 115 4 5 1 5 -6 1 -7 -4 -24 -1 -37 8 -13 9 -27 16 -30 16 -3 0 29 -50 70
-112z"/>
</g>
</svg>
